<?xml version="1.0" encoding="UTF-8" standalone="no"?>
<!-- Created with Inkscape (http://www.inkscape.org/) -->

<svg
   xmlns:dc="http://purl.org/dc/elements/1.1/"
   xmlns:cc="http://creativecommons.org/ns#"
   xmlns:rdf="http://www.w3.org/1999/02/22-rdf-syntax-ns#"
   xmlns:svg="http://www.w3.org/2000/svg"
   xmlns="http://www.w3.org/2000/svg"
   xmlns:sodipodi="http://sodipodi.sourceforge.net/DTD/sodipodi-0.dtd"
   xmlns:inkscape="http://www.inkscape.org/namespaces/inkscape"
   width="2320.4348"
   height="519.30249"
   viewBox="0 0 613.94836 137.39879"
   version="1.1"
   id="svg211"
   inkscape:version="0.92.1 unknown"
   sodipodi:docname="logo.svg">
  <defs
     id="defs205" />
  <sodipodi:namedview
     id="base"
     pagecolor="#ffffff"
     bordercolor="#666666"
     borderopacity="1.0"
     inkscape:pageopacity="0.0"
     inkscape:pageshadow="2"
     inkscape:zoom="0.26053847"
     inkscape:cx="1828.5222"
     inkscape:cy="237.08377"
     inkscape:document-units="mm"
     inkscape:current-layer="g4354"
     showgrid="false"
     fit-margin-top="0"
     fit-margin-left="0"
     fit-margin-right="0"
     fit-margin-bottom="0"
     units="px"
     inkscape:window-width="1366"
     inkscape:window-height="742"
     inkscape:window-x="0"
     inkscape:window-y="0"
     inkscape:window-maximized="1" />
  <metadata
     id="metadata208">
    <rdf:RDF>
      <cc:Work
         rdf:about="">
        <dc:format>image/svg+xml</dc:format>
        <dc:type
           rdf:resource="http://purl.org/dc/dcmitype/StillImage" />
        <dc:title></dc:title>
      </cc:Work>
    </rdf:RDF>
  </metadata>
  <g
     inkscape:label="Layer 1"
     inkscape:groupmode="layer"
     id="layer1"
     transform="translate(268.55447,6.9294858)">
    <g
       transform="matrix(0.92162477,0,0,0.92162477,-319.4338,-16.968738)"
       id="g4354">
      <path
         style="fill:#103e2e;fill-opacity:1;stroke:none;stroke-width:1.06666672"
         d="m 161.42038,133.61168 2.06058,2.56028 2.86089,-1.33153 0.81701,-0.56158 1.56171,-1.37421 2.95547,3.18158 -1.46101,1.47208 -0.60002,0.78003 -1.52638,2.78685 2.42228,2.21141 2.64109,-1.74855 0.70071,-0.68214 1.36032,-1.56995 3.42217,2.69372 -1.25964,1.66782 -0.47664,0.86231 -1.10373,2.96418 2.7301,1.83275 2.35321,-2.11877 0.61561,-0.75732 1.08236,-1.77989 3.79664,2.16898 -0.97455,1.83948 -0.36885,0.92187 -0.63572,3.11033 2.96843,1.40158 1.99723,-2.44217 0.49934,-0.87789 0.80579,-1.89055 4.04774,1.56197 -0.65971,1.95722 -0.21567,0.95025 -0.17618,3.19548 3.15284,0.94065 1.61148,-2.71169 0.36886,-0.92188 0.51363,-2.0239 4.23785,0.96345 -0.37604,2.0296 -0.0852,0.99424 0.32733,3.15012 3.23799,0.48112 1.19593,-2.92731 0.20007,-0.97295 0.22288,-2.05797 4.35848,0.31245 -0.0853,2.06366 0.0751,0.98432 0.77695,3.075 3.26924,-0.007 0.75058,-3.08905 0.0625,-0.97863 -0.0906,-2.07644 4.34153,-0.34424 0.25085,2.06653 0.21974,0.95171 1.21806,2.93888 3.2239,-0.5117 0.30666,-3.15148 -0.0751,-0.98432 -0.39552,-2.03392 4.22528,-0.99952 0.53311,2.0396 0.37151,0.88081 1.63507,2.71909 3.13316,-0.98403 -0.18975,-3.14443 -0.21975,-0.95172 -0.68486,-1.9687 4.01826,-1.5924 0.83663,1.89781 0.5006,0.82551 2.02088,2.45389 2.95876,-1.43222 -0.67057,-3.11471 -0.34883,-0.89642 -0.9884,-1.82689 3.75736,-2.21506 1.1175,1.77156 0.59137,0.76312 2.38258,2.10502 2.70067,-1.85633 -1.13436,-2.96299 -0.47794,-0.84109 -1.25361,-1.67801 3.41417,-2.71435 1.35152,1.5773 0.71194,0.64683 2.6677,1.74195 2.39718,-2.24924 -1.56699,-2.76587 -0.59137,-0.76312 -1.47208,-1.46101 2.92631,-3.18104 1.59265,1.34473 0.80981,0.54613 2.86773,1.30372 2.04122,-2.57264 -1.95279,-2.5007 -0.71195,-0.64681 -1.69053,-1.24405 2.44697,-3.58671 1.75719,1.09796 0.89209,0.42274 3.05216,0.84278 1.63275,-2.82657 -2.3074,-2.19011 -0.80981,-0.54613 -1.83948,-0.97456 1.87682,-3.93001 1.90616,0.82849 0.93606,0.29227 3.1529,0.40594 1.17891,-3.04929 -2.59252,-1.82705 -0.89209,-0.42274 -1.95723,-0.65972 1.26981,-4.18109 2.00121,0.52922 0.98005,0.16178 3.16145,-0.0677 0.71088,-3.19542 -2.84644,-1.41859 -0.93607,-0.29227 -2.02958,-0.37605 0.6188,-4.301707 2.07356,0.245557 0.99284,-0.01408 3.10901,-0.533003 0.25136,-3.280554 -3.04648,-0.980354 -0.96443,-0.139094 -2.06366,-0.08533 -0.0307,-4.323061 2.07642,-0.09056 0.97582,-0.136064 3.01831,-1.005302 -0.26777,-3.25792 -3.1316,-0.520821 -0.97014,-0.0021 -2.06652,0.250848 -0.66478,-4.321686 2.04951,-0.372832 0.92762,-0.303434 2.82118,-1.43791 -0.73297,-3.205482 -3.16286,-0.03157 -0.97582,0.136064 -2.0084,0.578486 -1.28886,-4.160064 1.9531,-0.707563 0.88791,-0.409813 2.57869,-1.839318 -1.21947,-3.038165 -3.12603,0.411008 -0.94321,0.280747 -1.92049,0.852224 -1.88884,-3.914752 1.84249,-0.965707 0.81702,-0.561568 2.26811,-2.193941 -1.65208,-2.841067 -3.0353,0.883328 -0.895,0.448107 -1.74888,1.101909 -2.4647,-3.58576 1.6709,-1.215339 0.72341,-0.69776 1.91214,-2.517344 -2.04498,-2.537578 -2.86089,1.331541 -0.81701,0.561579 -1.56171,1.374208 -2.97817,-3.165984 1.48371,-1.487691 0.60002,-0.780011 1.51929,-2.748565 -2.39959,-2.227008 -2.6411,1.748544 -0.71631,0.659456 -1.34472,1.592651 -3.42216,-2.693728 1.24404,-1.690528 0.47664,-0.862294 1.10373,-2.964192 -2.7301,-1.832736 -2.35321,2.118752 -0.60002,0.780022 -1.09795,1.757205 -3.78105,-2.146293 0.97456,-1.839478 0.34617,-0.906272 0.6357,-3.110325 -2.94573,-1.417184 -2.01992,2.45776 -0.49224,0.839605 -0.82849,1.906155 -4.02505,-1.577568 0.65971,-1.957227 0.21567,-0.950261 0.19177,-3.172768 -3.15284,-0.940651 -1.61148,2.71168 -0.36884,0.921878 -0.52924,2.001205 -4.23785,-0.963445 0.37604,-2.02959 0.0625,-0.978634 -0.28905,-3.14304 -3.23798,-0.48112 -1.19594,2.927306 -0.21567,0.950262 -0.22288,2.057962 -4.34288,-0.289749 0.0697,-2.086347 -0.0751,-0.98432 -0.77695,-3.075008 -3.26923,0.0075 -0.75059,3.089045 -0.0625,0.978646 0.0906,2.076426 -4.34153,0.344246 -0.25085,-2.066528 -0.21974,-0.951723 -1.20246,-2.916181 -3.2395,0.489013 -0.29106,3.174187 0.0595,0.961621 0.41111,2.056608 -4.24087,0.976832 -0.54021,-2.001323 -0.36441,-0.919093 -1.63507,-2.719093 -3.13317,0.984021 0.20535,3.167136 0.21975,0.951712 0.68487,1.968704 -4.01827,1.592395 -0.83664,-1.897792 -0.51619,-0.848214 -2.02087,-2.453898 -2.94317,1.454922 0.65498,3.092022 0.36442,0.919104 0.9884,1.82689 -3.77295,2.192374 -1.10191,-1.748875 -0.62963,-0.770229 -2.35989,-2.120619 -2.70067,1.85632 1.11168,2.978592 0.51619,0.848203 1.23801,1.655328 -3.39857,2.737045 -1.35151,-1.577312 -0.72754,-0.669515 -2.65211,-1.719264 -2.41278,2.22655 1.56699,2.765877 0.60696,0.785803 1.47209,1.461013 -2.92632,3.181035 -1.59264,-1.344726 -0.80981,-0.546133 -2.88333,-1.326411 -2.04121,2.572651 1.95279,2.500683 0.70485,0.68512 1.69762,1.205738 -2.43136,3.609408 -1.7728,-1.12065 -0.87649,-0.400043 -3.06775,-0.865472 -1.61717,2.849259 2.29181,2.167413 0.80981,0.546133 1.83948,0.974571 -1.87682,3.929995 -1.90615,-0.82848 -0.93607,-0.292267 -3.15289,-0.405941 -1.17892,3.04929 2.59253,1.82704 0.89208,0.422752 1.97282,0.6824 -1.28539,4.158411 -2.00122,-0.529227 -0.96444,-0.139093 -3.16146,0.06773 -0.71088,3.195424 2.80815,1.411499 0.95876,0.276661 2.02958,0.376054 -0.61879,4.301717 -2.05797,-0.222869 -0.99283,0.01408 -3.10902,0.532992 -0.25135,3.280565 3.03087,0.957664 0.96444,0.139083 2.06365,0.08533 0.007,4.338656 -2.05375,0.07499 -0.98292,0.174368 -2.9956,0.989698 0.24507,3.273525 3.13161,0.520822 0.99283,-0.0141 2.06653,-0.25085 0.64917,4.29901 -2.03391,0.39552 -0.94321,0.28074 -2.82119,1.43792 0.73298,3.20547 3.16284,0.0316 0.97582,-0.13607 2.02401,-0.55578 1.28886,4.16006 -1.9687,0.68486 -0.87231,0.4325 -2.57868,1.83933 1.19676,3.05377 3.13314,-0.44931 0.94321,-0.28073 1.89779,-0.83664 1.91153,3.89916 -1.8425,0.9657 -0.817,0.56158 -2.26812,2.19393 1.63648,2.81837 3.0353,-0.88333 0.91061,-0.42541 1.7333,-1.12456 2.46471,3.58576 -1.65533,1.23799 -0.73901,0.67505 -1.91215,2.51736 z m 25.932,-8.16707 24.48758,-16.83176 16.84736,24.51026 c -14.12684,4.888 -29.89547,1.95571 -41.33494,-7.6785 z m -12.85391,-18.70042 c -4.89337,-14.127515 -1.9721,-29.886096 7.65581,-41.319323 l 16.83177,24.487563 z m 34.06909,-9.649859 c -2.35106,-3.420429 -1.46782,-8.080536 1.95261,-10.431597 3.42043,-2.351061 8.08763,-1.506112 10.43869,1.914315 2.35106,3.420426 1.48342,8.103234 -1.937,10.454295 -3.42043,2.351066 -8.10324,1.483416 -10.4543,-1.937013 z M 247.41043,120.2536 230.56307,95.743342 255.05063,78.911587 c 4.88916,14.126208 1.97547,29.902593 -7.6402,41.342013 z M 217.70916,77.042915 200.8774,52.555363 c 14.12185,-4.883637 29.88536,-1.965578 41.31933,7.655798 z"
         id="path5582"
         inkscape:connector-curvature="0" />
      <text
         xml:space="preserve"
         style="font-style:italic;font-variant:normal;font-weight:bold;font-stretch:normal;font-size:12.80000019px;line-height:0%;font-family:Pothana2000;-inkscape-font-specification:'Pothana2000 Bold Italic';letter-spacing:0px;word-spacing:0px;fill:#006680;fill-opacity:1;stroke:none;stroke-width:1.06666672"
         x="52.541737"
         y="124.35197"
         id="text5626"><tspan
           sodipodi:role="line"
           id="tspan5628"
           x="52.541737"
           y="124.35197"
           style="font-style:italic;font-variant:normal;font-weight:bold;font-stretch:normal;font-size:126.89918518px;line-height:1.25;font-family:Pothana2000;-inkscape-font-specification:'Pothana2000 Bold Italic';stroke-width:1.06666672">K      plex</tspan></text>
      <path
         inkscape:connector-curvature="0"
         id="path5689"
         d="m 289.6258,118.80181 2.06059,2.56028 2.86088,-1.33153 0.81702,-0.56158 1.5617,-1.37421 2.95548,3.18159 -1.46101,1.47208 -0.60002,0.78002 -1.52639,2.78686 2.42229,2.2114 2.64109,-1.74854 0.7007,-0.68215 1.36033,-1.56995 3.42217,2.69373 -1.25964,1.66782 -0.47664,0.8623 -1.10374,2.96418 2.73011,1.83275 2.35321,-2.11876 0.61561,-0.75733 1.08235,-1.77989 3.79665,2.16898 -0.97456,1.83948 -0.36885,0.92188 -0.63571,3.11032 2.96842,1.40158 1.99724,-2.44217 0.49933,-0.87788 0.80579,-1.89055 4.04775,1.56196 -0.65971,1.95723 -0.21567,0.95026 -0.17618,3.19546 3.15284,0.94066 1.61148,-2.7117 0.36885,-0.92187 0.51363,-2.02391 4.23786,0.96346 -0.37604,2.02959 -0.0852,0.99424 0.32733,3.15013 3.23798,0.48111 1.19594,-2.92731 0.20007,-0.97294 0.22288,-2.05797 4.35848,0.31244 -0.0853,2.06366 0.0751,0.98432 0.77695,3.07501 3.26925,-0.007 0.75058,-3.08903 0.0625,-0.97865 -0.0906,-2.07643 4.34152,-0.34424 0.25085,2.06653 0.21975,0.95171 1.21806,2.93888 3.2239,-0.5117 0.30666,-3.15149 -0.0751,-0.98432 -0.39552,-2.03392 4.22528,-0.99952 0.5331,2.0396 0.37152,0.88081 1.63507,2.7191 3.13316,-0.98402 -0.18975,-3.14445 -0.21975,-0.95171 -0.68487,-1.96871 4.01826,-1.59239 0.83664,1.8978 0.50059,0.82552 2.02089,2.45389 2.95876,-1.43223 -0.67058,-3.11471 -0.34882,-0.89641 -0.9884,-1.8269 3.75736,-2.21506 1.1175,1.77156 0.59137,0.76312 2.38258,2.10502 2.70067,-1.85633 -1.13436,-2.96298 -0.47795,-0.84109 -1.2536,-1.67802 3.41417,-2.71434 1.35151,1.5773 0.71195,0.64682 2.6677,1.74196 2.39717,-2.24924 -1.56698,-2.76588 -0.59137,-0.76311 -1.47208,-1.46102 2.92631,-3.18103 1.59264,1.34472 0.80982,0.54614 2.86773,1.30372 2.04122,-2.57265 -1.9528,-2.50068 -0.71194,-0.64683 -1.69053,-1.24403 2.44697,-3.58671 1.75718,1.09795 0.8921,0.42274 3.05216,0.84277 1.63275,-2.82656 -2.3074,-2.19011 -0.80981,-0.54614 -1.83948,-0.97457 1.87682,-3.93 1.90616,0.8285 0.93606,0.29226 3.15289,0.40594 1.17892,-3.04929 -2.59252,-1.827048 -0.89209,-0.422742 -1.95723,-0.659701 1.26981,-4.181111 2.0012,0.529226 0.98004,0.161782 3.16147,-0.06773 0.71088,-3.195424 -2.84645,-1.418592 -0.93606,-0.292266 -2.02958,-0.376054 0.61878,-4.301706 2.07357,0.245568 0.99285,-0.01408 3.10901,-0.532992 0.25135,-3.280566 -3.04647,-0.980352 -0.96444,-0.139082 -2.06365,-0.08533 -0.0307,-4.323061 2.07644,-0.09056 0.97581,-0.136064 3.0183,-1.005301 -0.26776,-3.25792 -3.1316,-0.520822 -0.97014,-0.0021 -2.06652,0.250837 -0.66478,-4.321685 2.04951,-0.372832 0.92762,-0.303424 2.82118,-1.43792 -0.73297,-3.205483 -3.16286,-0.03157 -0.97582,0.136064 -2.0084,0.578485 -1.28887,-4.160064 1.95311,-0.707562 0.88791,-0.409814 2.57869,-1.839317 -1.21947,-3.038165 -3.12603,0.411008 -0.94321,0.280746 -1.92049,0.852235 -1.88884,-3.914763 1.84249,-0.965706 0.81702,-0.561568 2.2681,-2.193942 -1.65207,-2.841056 -3.0353,0.883318 -0.895,0.448106 -1.74888,1.10191 -2.4647,-3.58576 1.67089,-1.215339 0.72341,-0.697749 1.91215,-2.517344 -2.04498,-2.537579 -2.8609,1.331531 -0.817,0.561578 -1.56171,1.374208 -2.97817,-3.165984 1.48371,-1.48768 0.60002,-0.780021 1.51929,-2.748565 -2.3996,-2.226998 -2.64109,1.748534 -0.71631,0.659456 -1.34472,1.59265 -3.42217,-2.693728 1.24405,-1.690517 0.47663,-0.862304 1.10374,-2.964192 -2.7301,-1.832736 -2.35321,2.118763 -0.60002,0.78001 -1.09795,1.757206 -3.78105,-2.146294 0.97456,-1.839477 0.34616,-0.906272 0.6357,-3.110325 -2.94572,-1.417184 -2.01993,2.45776 -0.49224,0.839605 -0.82848,1.906155 -4.02505,-1.577568 0.6597,-1.957227 0.21568,-0.950261 0.19177,-3.172768 -3.15284,-0.940651 -1.61148,2.71168 -0.36885,0.921877 -0.52923,2.001206 -4.23785,-0.963446 0.37604,-2.029589 0.0625,-0.978635 -0.28904,-3.143029 -3.23799,-0.481131 -1.19593,2.927307 -0.21568,0.950261 -0.22287,2.057963 -4.34288,-0.289749 0.0698,-2.086347 -0.0751,-0.98432 -0.77695,-3.075008 -3.26924,0.0075 -0.75058,3.089034 -0.0625,0.978646 0.0906,2.076426 -4.34153,0.344246 -0.25085,-2.066528 -0.21974,-0.951723 -1.20247,-2.916181 -3.23949,0.489013 -0.29107,3.174187 0.0595,0.961621 0.41112,2.056619 -4.24089,0.976821 -0.54019,-2.001312 -0.36441,-0.919104 -1.63508,-2.719093 -3.13317,0.984021 0.20535,3.167136 0.21976,0.951712 0.68485,1.968704 -4.01826,1.592395 -0.83663,-1.897792 -0.51619,-0.848214 -2.02087,-2.453898 -2.94317,1.454933 0.65497,3.092011 0.36443,0.919104 0.98839,1.82689 -3.77296,2.192374 -1.10189,-1.748875 -0.62964,-0.770229 -2.35988,-2.120619 -2.70067,1.85632 1.11168,2.978592 0.51618,0.848203 1.23802,1.655328 -3.39857,2.737045 -1.35152,-1.577312 -0.72753,-0.669515 -2.65211,-1.719264 -2.41278,2.22655 1.56699,2.765877 0.60696,0.785803 1.47209,1.461024 -2.92632,3.181024 -1.59265,-1.344726 -0.8098,-0.546133 -2.88333,-1.326411 -2.04121,2.572651 1.95278,2.500683 0.70485,0.68513 1.69762,1.205728 -2.43135,3.609408 -1.7728,-1.12065 -0.87649,-0.400043 -3.06776,-0.865472 -1.61716,2.849259 2.29181,2.167413 0.80981,0.546133 1.83947,0.974571 -1.87682,3.929995 -1.90615,-0.82848 -0.93606,-0.292267 -3.1529,-0.405941 -1.17892,3.04929 2.59253,1.827051 0.89208,0.422741 1.97283,0.682411 -1.28541,4.1584 -2.0012,-0.529227 -0.96445,-0.139093 -3.16145,0.06773 -0.71088,3.195414 2.80815,1.411498 0.95875,0.276662 2.02959,0.376053 -0.61879,4.301717 -2.05798,-0.222869 -0.99282,0.01408 -3.10902,0.533003 -0.25136,3.280554 3.03088,0.957664 0.96443,0.139083 2.06366,0.08533 0.007,4.338667 -2.05374,0.07499 -0.98292,0.174368 -2.9956,0.989696 0.24507,3.273525 3.13161,0.520821 0.99283,-0.01408 2.06653,-0.250848 0.64917,4.299008 -2.03391,0.39552 -0.94322,0.280736 -2.82119,1.43792 0.73297,3.205483 3.16286,0.03157 0.97582,-0.136064 2.02401,-0.555786 1.28886,4.160076 -1.96871,0.684854 -0.87231,0.432512 -2.57869,1.839319 1.19678,3.05377 3.13312,-0.44931 0.94322,-0.28074 1.8978,-0.83664 1.91153,3.89917 -1.8425,0.96569 -0.81701,0.56158 -2.26811,2.19393 1.63648,2.81837 3.0353,-0.88333 0.9106,-0.42541 1.7333,-1.12456 2.46472,3.58576 -1.65533,1.238 -0.73902,0.67505 -1.91214,2.51735 z m 25.93201,-8.16707 24.48758,-16.831754 16.84735,24.510264 c -14.12683,4.888 -29.89547,1.9557 -41.33493,-7.67851 z M 302.7039,91.934324 c -4.89337,-14.12752 -1.9721,-29.886101 7.65581,-41.319328 l 16.83177,24.487574 z m 34.06909,-9.649866 c -2.35107,-3.420427 -1.46782,-8.080534 1.95261,-10.431595 3.42043,-2.351061 8.08763,-1.506112 10.43869,1.914315 2.35106,3.420426 1.48341,8.103232 -1.93702,10.454293 -3.42042,2.351061 -8.10322,1.483413 -10.45428,-1.937013 z m 38.84287,23.159272 -16.84737,-24.510259 24.48757,-16.831755 c 4.88916,14.126208 1.97547,29.902592 -7.6402,41.342014 z M 345.91458,62.233044 329.08283,37.745492 c 14.12185,-4.883637 29.88535,-1.965578 41.31932,7.655798 z"
         style="fill:#ff6600;stroke:none;stroke-width:1.06666672" />
    </g>
  </g>
</svg>
